<svg xmlns="http://www.w3.org/2000/svg" width="652" height="996" viewBox="0 0 652 996" version="1.1"><path d="M 317.128 20.750 C 310.926 25.013, 304.133 29.625, 302.032 31 C 289.288 39.339, 263.522 56.613, 258 60.520 C 254.425 63.050, 249.025 66.641, 246 68.500 C 242.975 70.359, 237.575 73.952, 234 76.485 C 226.908 81.509, 219.643 86.374, 214.566 89.500 C 212.779 90.600, 209.558 92.744, 207.409 94.265 C 198.022 100.906, 193.271 104.109, 190 106 C 188.075 107.113, 184.250 109.607, 181.500 111.541 C 178.750 113.476, 175.669 115.608, 174.654 116.279 C 169.722 119.540, 169.372 119.933, 171.984 119.273 C 173.350 118.927, 175.150 117.893, 175.984 116.975 C 176.818 116.057, 179.465 114.698, 181.867 113.955 C 184.368 113.180, 187.093 111.441, 188.244 109.883 C 189.487 108.203, 190.970 107.302, 192.127 107.525 C 193.157 107.723, 194 107.461, 194 106.943 C 194 106.424, 194.462 106, 195.027 106 C 196.288 106, 212.191 94.063, 213.300 92.283 C 213.740 91.577, 214.914 91, 215.910 91 C 216.906 91, 219.441 89.832, 221.544 88.405 C 223.647 86.978, 226.298 85.401, 227.434 84.901 C 228.570 84.400, 232.200 81.981, 235.500 79.526 C 238.800 77.070, 244.275 73.471, 247.668 71.528 C 251.060 69.584, 253.985 67.610, 254.168 67.140 C 254.350 66.670, 258.100 63.987, 262.500 61.178 C 266.900 58.368, 271.044 55.604, 271.708 55.035 C 272.372 54.466, 273.323 54, 273.820 54 C 274.318 54, 276.345 52.763, 278.324 51.250 C 280.304 49.737, 287.593 44.900, 294.522 40.500 C 301.452 36.100, 309.006 31.045, 311.311 29.266 C 313.615 27.488, 318.714 23.829, 322.643 21.136 L 329.785 16.239 334.858 19.013 C 337.647 20.539, 344.324 25.097, 349.695 29.143 C 360.689 37.426, 360.490 37.284, 372.635 45.492 C 377.511 48.787, 382.047 51.937, 382.715 52.492 C 383.384 53.046, 384.513 53.950, 385.226 54.500 C 385.938 55.050, 388.596 57.170, 391.132 59.212 C 393.668 61.253, 395.943 62.724, 396.187 62.480 C 396.431 62.236, 399.301 64.555, 402.565 67.633 C 405.829 70.711, 410.066 74.416, 411.980 75.865 C 413.894 77.314, 416.144 79.041, 416.980 79.702 C 424.590 85.718, 430.492 90, 431.175 90 C 431.629 90, 432 90.702, 432 91.559 C 432 92.416, 432.411 92.864, 432.913 92.554 C 433.415 92.243, 435.683 93.774, 437.952 95.954 C 440.222 98.134, 442.290 99.930, 442.549 99.944 C 443.303 99.985, 458.565 109.994, 457.877 109.997 C 457.535 109.999, 459.891 112.588, 463.114 115.750 C 466.336 118.912, 468.979 122.089, 468.986 122.809 C 468.994 123.529, 469.414 123.862, 469.919 123.550 C 470.425 123.237, 471.518 123.661, 472.348 124.491 C 473.178 125.321, 474.309 126, 474.861 126 C 475.413 126, 476.155 126.912, 476.508 128.026 C 476.868 129.159, 477.864 129.931, 478.766 129.776 C 481.034 129.388, 482.673 135.228, 481.202 138.455 C 480.598 139.782, 480.447 141.010, 480.866 141.184 C 481.286 141.358, 481.308 142.625, 480.914 144 L 480.199 146.500 480.068 144 C 479.871 140.252, 476 135.780, 476 139.301 C 476 143.060, 473.461 145.984, 470.191 145.992 C 468.206 145.997, 467.133 146.407, 467.510 147.016 C 467.856 147.575, 468.557 147.774, 469.069 147.457 C 469.581 147.141, 470 147.795, 470 148.911 C 470 150.026, 470.879 152.504, 471.954 154.417 C 473.185 156.610, 474.132 160.779, 474.515 165.698 C 474.849 169.989, 475.288 175.412, 475.491 177.750 C 475.835 181.735, 475.338 182.527, 472.750 182.118 C 472.337 182.053, 472 182.450, 472 183 C 472 183.550, 472.659 184, 473.465 184 C 474.669 184, 474.882 185.734, 474.665 193.750 C 474.519 199.113, 474.740 204.489, 475.155 205.697 C 475.737 207.391, 475.463 208.036, 473.955 208.514 C 472.880 208.856, 472 209.779, 472 210.567 C 472 211.355, 471.550 212, 471 212 C 470.450 212, 470.053 211.662, 470.118 211.250 C 470.468 209.039, 469.790 208, 468 208 C 466.900 208, 465.993 208.563, 465.985 209.250 C 465.974 210.083, 465.646 210, 465 209 C 464.467 208.175, 464.024 207.893, 464.015 208.372 C 464.007 208.852, 463.438 208.798, 462.750 208.253 C 462.063 207.707, 459.813 206.717, 457.750 206.053 C 455.688 205.388, 454 204.482, 454 204.039 C 454 202.357, 446.904 200.855, 445.877 202.319 C 445.044 203.506, 441 201.284, 441 199.639 C 441 198.001, 437.384 194.716, 433.500 192.827 C 429.083 190.679, 425.765 188.674, 424.133 187.166 C 423.339 186.433, 421.747 185.421, 420.595 184.919 C 419.443 184.416, 417.626 183.441, 416.558 182.752 C 409.504 178.202, 403.011 174.444, 395.324 170.463 C 390.471 167.950, 383.800 163.903, 380.500 161.470 C 377.200 159.036, 372.250 155.732, 369.500 154.127 C 366.750 152.522, 362.475 149.812, 360 148.105 C 357.525 146.398, 352.575 142.980, 349 140.510 C 341.272 135.171, 336.792 133.032, 334.316 133.502 C 333.317 133.692, 332.275 133.888, 332 133.938 C 331.725 133.988, 332.478 134.585, 333.674 135.265 C 335.628 136.375, 345.032 142.772, 366.358 157.500 C 370.340 160.250, 376.276 164.300, 379.549 166.500 C 382.822 168.700, 386.019 170.950, 386.653 171.500 C 387.852 172.541, 423.243 196.624, 430.003 201 C 435.224 204.380, 463.623 223.726, 474 230.972 C 474.825 231.548, 479.325 234.522, 484 237.580 C 497.426 246.361, 496 237.869, 496 309.052 C 496 369.236, 496.233 373.834, 499.103 370.376 C 499.834 369.496, 506.297 364.932, 513.466 360.235 C 550.585 335.913, 588.760 310.438, 590.750 308.660 L 593 306.651 593 248.341 L 593 190.030 588.250 186.376 C 585.638 184.366, 571.350 174.483, 556.500 164.415 C 541.650 154.346, 522.358 141.246, 513.628 135.304 C 504.898 129.362, 495.396 122.925, 492.511 121 C 489.627 119.075, 483.944 115.226, 479.883 112.447 C 475.823 109.668, 462.600 100.702, 450.500 92.523 C 406.283 62.634, 364.037 33.908, 356.500 28.606 C 354.850 27.445, 352.761 26.046, 351.859 25.497 C 350.956 24.949, 346.367 21.913, 341.661 18.750 C 330.813 11.460, 330.621 11.475, 317.128 20.750 M 321.645 136.589 C 319.915 137.737, 316.700 139.868, 314.500 141.324 C 312.300 142.780, 306 147.092, 300.500 150.906 C 295 154.720, 286.700 160.239, 282.056 163.171 C 277.412 166.102, 271.337 170.455, 268.556 172.845 C 265.775 175.235, 262.825 177.485, 262 177.845 C 259.179 179.076, 248.613 186.496, 245.054 189.745 C 243.099 191.530, 241.050 193.011, 240.500 193.036 C 239.950 193.061, 237.972 194.388, 236.104 195.985 C 233.332 198.356, 233.118 198.782, 234.939 198.306 C 236.166 197.985, 237.404 197.110, 237.692 196.361 C 237.979 195.613, 238.728 194.999, 239.357 194.999 C 239.986 194.998, 241.807 193.873, 243.406 192.499 C 245.004 191.124, 246.930 190, 247.687 190 C 248.444 190, 249.322 189.325, 249.638 188.500 C 249.955 187.675, 250.650 187, 251.183 187 C 251.717 187, 255.606 184.680, 259.826 181.845 C 271.275 174.154, 273.467 172.574, 273.833 171.750 C 274.017 171.338, 274.649 171, 275.239 171 C 275.829 171, 277.704 169.954, 279.406 168.676 C 281.108 167.398, 283.175 166.041, 284 165.660 C 285.701 164.875, 289.267 162.559, 304.667 152.242 C 310.625 148.250, 316.338 144.425, 317.363 143.742 C 318.388 143.059, 320.812 141.262, 322.751 139.750 C 324.689 138.238, 326.695 137, 327.209 137 C 327.723 137, 328.801 136.342, 329.605 135.538 C 331.956 133.187, 325.479 134.042, 321.645 136.589 M 479.568 159.585 C 478.837 162.496, 479.657 166, 481.067 166 C 481.580 166, 482 165.550, 482 165 C 482 164.450, 481.640 164, 481.201 164 C 480.761 164, 480.585 162.425, 480.810 160.500 C 481.287 156.414, 480.508 155.840, 479.568 159.585 M 478.223 179.572 C 478.113 180.907, 478.467 182, 479.011 182 C 480.182 182, 480.351 178.335, 479.212 177.631 C 478.779 177.363, 478.334 178.237, 478.223 179.572 M 228.500 200.945 C 226.039 201.952, 222.272 206, 223.795 206 C 224.403 206, 225.260 205.389, 225.700 204.642 C 226.140 203.894, 227.850 202.562, 229.500 201.682 C 232.628 200.012, 231.968 199.526, 228.500 200.945 M 479.046 205.086 C 479.660 206.233, 480.406 206.927, 480.705 206.629 C 481.529 205.805, 480.209 203, 478.996 203 C 478.257 203, 478.272 203.639, 479.046 205.086 M 216.032 209.318 C 212.589 210.967, 207.878 215.344, 210.559 214.402 C 211.626 214.027, 212.950 213.180, 213.500 212.519 C 214.050 211.859, 215.850 210.590, 217.500 209.699 C 220.936 207.845, 219.751 207.536, 216.032 209.318 M 303.277 409.320 C 272.523 424.777, 256.164 432.698, 251.997 434.151 C 250.349 434.725, 249 435.503, 249 435.880 C 249 436.256, 246.975 437.161, 244.500 437.892 C 242.025 438.623, 240 439.549, 240 439.950 C 240 440.352, 238.200 441.274, 236 442 C 233.800 442.726, 232 443.649, 232 444.052 C 232 444.454, 230.875 445.066, 229.500 445.411 C 226.793 446.090, 226.055 448, 228.500 448 C 229.325 448, 230 447.608, 230 447.128 C 230 446.648, 231.817 445.965, 234.038 445.610 C 236.259 445.255, 238.322 444.325, 238.622 443.543 C 238.922 442.762, 240.592 441.812, 242.334 441.433 C 244.075 441.054, 246.388 440.127, 247.473 439.372 C 248.557 438.618, 250.139 438, 250.987 438 C 251.836 438, 254.098 437.160, 256.015 436.133 C 257.932 435.107, 260.957 433.947, 262.739 433.556 C 264.520 433.166, 266.232 432.433, 266.544 431.928 C 267.560 430.284, 271 428.812, 271 430.021 C 271 432.546, 264.478 437.055, 253.284 442.269 C 252.065 442.837, 251.306 443.687, 251.598 444.158 C 251.889 444.629, 251.433 445.280, 250.586 445.605 C 248.504 446.404, 239.598 455, 240.852 455 C 241.399 455, 243.184 453.875, 244.818 452.500 C 246.452 451.125, 248.066 450, 248.405 450 C 248.743 450, 251.153 448.533, 253.760 446.741 C 256.367 444.948, 259.850 442.812, 261.500 441.995 C 263.150 441.177, 267.650 438.233, 271.500 435.453 C 275.350 432.673, 281.650 428.437, 285.500 426.040 C 292.485 421.692, 294.856 420.171, 317.500 405.512 C 338.095 392.179, 336.572 392.586, 303.277 409.320 M 453.500 402.192 C 452.400 402.813, 446.325 406.779, 440 411.005 C 433.675 415.230, 424.225 421.518, 419 424.978 C 413.775 428.438, 408.150 432.216, 406.500 433.374 C 403.178 435.705, 378.790 452.155, 372.500 456.307 C 366.911 459.996, 360.369 464.428, 354.500 468.501 C 351.750 470.410, 348.153 472.721, 346.506 473.638 C 344.859 474.554, 341.218 477.035, 338.415 479.152 C 335.612 481.268, 333.002 483, 332.616 483 C 332.230 483, 329.530 484.800, 326.616 487 C 323.702 489.200, 321.002 491, 320.616 491 C 320.230 491, 317.530 492.800, 314.616 495 C 311.702 497.200, 308.974 499, 308.552 499 C 308.131 499, 305.635 500.688, 303.007 502.750 C 300.378 504.813, 296.263 507.735, 293.863 509.245 C 286.069 514.149, 266.779 527.177, 266 528.063 C 265.725 528.376, 263.025 530.090, 260 531.873 C 251.891 536.650, 247.846 539.264, 234.747 548.189 C 233.232 549.221, 230.307 551.169, 228.247 552.518 C 226.186 553.868, 224.050 555.324, 223.500 555.755 C 222.950 556.185, 220.250 557.995, 217.500 559.776 C 214.750 561.557, 211.638 563.573, 210.585 564.257 C 209.532 564.941, 207.951 566.175, 207.071 567 C 206.192 567.825, 204.224 569.061, 202.699 569.746 C 199.766 571.062, 199.184 571.474, 194.639 575.440 C 193.065 576.813, 190.893 578.216, 189.813 578.559 C 188.733 578.902, 188.066 579.400, 188.332 579.665 C 188.597 579.930, 190.318 579.346, 192.157 578.366 C 193.996 577.386, 195.725 576.562, 196 576.535 C 197.282 576.408, 200.920 573.253, 200.392 572.725 C 200.064 572.398, 203.103 570.525, 207.145 568.565 C 211.186 566.604, 214.045 564.982, 213.497 564.961 C 212.948 564.939, 213.850 564.326, 215.500 563.599 C 217.150 562.871, 220.287 560.629, 222.470 558.615 C 224.654 556.602, 226.961 555.155, 227.598 555.399 C 228.235 555.644, 229.149 555.470, 229.628 555.014 C 230.108 554.558, 232.734 552.949, 235.465 551.440 C 238.196 549.930, 243.146 546.566, 246.465 543.964 C 249.784 541.362, 255.462 537.665, 259.082 535.750 C 265.202 532.511, 270.113 529.582, 272.500 527.747 C 278.921 522.811, 280.422 521.802, 302.189 507.796 C 306.210 505.209, 312.100 501.255, 315.278 499.010 C 322.269 494.071, 326.490 491.462, 330.580 489.553 C 332.273 488.763, 334.241 487.415, 334.952 486.558 C 335.663 485.701, 336.795 485, 337.467 485 C 338.140 485, 339.505 484.100, 340.500 483 C 341.495 481.900, 342.774 481, 343.341 481 C 343.907 481, 345.300 480.179, 346.436 479.175 C 348.301 477.526, 356.005 472.524, 368.832 464.635 C 371.393 463.060, 375.967 459.888, 378.995 457.587 C 382.023 455.286, 386.525 452.309, 389 450.971 C 391.475 449.633, 395.696 446.842, 398.381 444.769 C 401.065 442.696, 403.700 441, 404.237 441 C 404.773 441, 406.917 439.650, 409 438 C 411.083 436.350, 413.806 435, 415.050 435 C 416.293 435, 418.786 433.875, 420.589 432.500 C 422.392 431.125, 424.122 430, 424.433 430 C 424.745 430, 425.935 429.065, 427.077 427.923 C 428.220 426.780, 429.772 426.082, 430.526 426.372 C 431.373 426.697, 431.704 426.393, 431.392 425.578 C 431.100 424.819, 432.695 422.927, 435.139 421.129 C 439.895 417.631, 442.517 416.873, 438.861 420.053 L 436.500 422.106 439 421.441 C 441.906 420.668, 446.225 416.173, 445.378 414.803 C 445.060 414.288, 445.407 413.968, 446.150 414.093 C 446.892 414.218, 448.832 413.774, 450.461 413.105 C 454.584 411.412, 459.972 413.503, 462.036 417.596 C 462.976 419.461, 464.139 420.465, 465.036 420.185 C 465.841 419.932, 466.182 420.069, 465.793 420.487 C 465.403 420.906, 465.875 421.980, 466.840 422.874 C 467.898 423.855, 467.980 424.103, 467.047 423.500 C 465.696 422.626, 465.675 422.723, 466.883 424.262 C 467.813 425.448, 468.645 425.710, 469.425 425.062 C 470.493 424.176, 478 430.793, 478 432.620 C 478 432.975, 478.812 433.993, 479.805 434.883 C 481.753 436.629, 482.745 444, 481.031 444 C 480.437 444, 480 446.545, 480 450 C 480 453.333, 479.556 456, 479 456 C 478.450 456, 478 453.750, 478 451 C 478 445.185, 475.380 443.929, 473.304 448.750 C 471.505 452.927, 469.738 467.413, 470.976 467.825 C 471.539 468.013, 472 469.029, 472 470.083 C 472 471.137, 472.479 472, 473.064 472 C 473.735 472, 474.078 469.143, 473.993 464.250 C 473.919 459.988, 473.891 455.938, 473.929 455.250 C 474.048 453.153, 476 453.860, 476 456 C 476 457.100, 476.395 458, 476.879 458 C 477.362 458, 478.317 459.350, 479 461 C 479.683 462.650, 480.638 464, 481.121 464 C 482.526 464, 482.175 473.762, 480.750 474.341 C 479.864 474.700, 479.819 475.088, 480.595 475.674 C 482.449 477.072, 483.133 484, 481.418 484 C 480.438 484, 480.099 484.763, 480.383 486.327 C 480.758 488.397, 480.438 488.641, 477.477 488.543 C 475.647 488.482, 474.367 488.785, 474.634 489.216 C 474.900 489.647, 474.416 490, 473.559 490 C 472.702 490, 472.113 490.563, 472.250 491.250 C 472.404 492.020, 471.640 492.380, 470.258 492.188 C 468.573 491.954, 468.164 492.265, 468.615 493.438 C 468.947 494.304, 468.694 495, 468.048 495 C 467.407 495, 467.159 495.449, 467.498 495.997 C 467.902 496.650, 467.192 496.643, 465.443 495.978 C 463.256 495.147, 462.872 495.225, 463.326 496.408 C 463.985 498.125, 461.538 500.450, 460.044 499.527 C 459.458 499.165, 459 499.718, 459 500.786 C 459 503.044, 455.696 506.330, 454.510 505.252 C 454.054 504.838, 453.964 505.288, 454.309 506.250 C 454.799 507.614, 454.392 508, 452.469 508 C 450.923 508, 450 508.570, 450 509.525 C 450 510.363, 448.875 511.477, 447.500 512 C 446.125 512.523, 444.999 513.299, 444.998 513.725 C 444.997 514.151, 442.860 515.822, 440.248 517.437 C 432.825 522.029, 423.100 529.694, 413.679 538.378 C 411.578 540.315, 407.435 543.508, 404.473 545.474 C 401.511 547.440, 398.813 549.493, 398.478 550.036 C 398.142 550.579, 395.210 552.789, 391.962 554.946 C 388.713 557.104, 385.481 559.357, 384.778 559.953 C 383.419 561.105, 378.562 564.438, 368 571.464 C 364.425 573.842, 360.325 576.848, 358.888 578.144 C 355.743 580.981, 353.555 582.467, 349.250 584.691 C 347.462 585.615, 346 586.693, 346 587.088 C 346 587.483, 343.413 589.507, 340.250 591.587 C 337.087 593.667, 334.275 595.623, 334 595.934 C 333.725 596.245, 331.925 597.352, 330 598.393 C 328.075 599.435, 324.250 601.971, 321.500 604.030 C 318.750 606.088, 307.500 613.818, 296.500 621.207 C 285.500 628.597, 272.048 637.760, 266.607 641.571 C 261.167 645.382, 254.867 649.786, 252.607 651.358 C 250.348 652.930, 247.361 655.438, 245.968 656.931 C 244.576 658.424, 242.844 659.448, 242.120 659.207 C 241.395 658.965, 239.737 659.338, 238.435 660.035 C 236.523 661.058, 235.773 661.057, 234.534 660.028 C 233.193 658.915, 233 659.336, 233 663.378 C 233 667.703, 233.113 667.900, 234.750 666.453 C 235.713 665.602, 238.975 663.276, 242 661.284 C 252.422 654.419, 290.509 629.059, 295 625.994 C 297.475 624.305, 315.275 612.477, 334.556 599.711 C 353.837 586.945, 376.707 571.775, 385.380 566 C 394.052 560.225, 401.864 555.050, 402.740 554.500 C 403.616 553.950, 416.561 545.400, 431.507 535.500 C 446.453 525.600, 459.383 517.050, 460.240 516.500 C 461.098 515.950, 469.382 510.410, 478.650 504.188 L 495.500 492.877 495.774 619.688 C 496.090 765.874, 497.163 753.749, 483.444 759.089 C 482.574 759.428, 400.714 813.863, 397.500 816.240 C 396.950 816.646, 384.050 825.258, 368.833 835.375 C 353.616 845.493, 339.624 854.948, 337.739 856.386 C 335.854 857.824, 333.604 859, 332.739 859 C 331.874 859, 330.904 859.563, 330.583 860.250 C 330.117 861.250, 329.883 861.250, 329.417 860.250 C 329.096 859.563, 328.369 859, 327.801 859 C 327.233 859, 324.683 857.474, 322.134 855.608 C 315.854 851.011, 285.396 830.387, 264 816.243 C 254.375 809.881, 246.275 804.366, 246 803.987 C 245.393 803.153, 241.397 801, 240.454 801 C 237.964 801, 255.784 815.202, 262 818.171 C 263.925 819.091, 268.650 822.107, 272.500 824.875 C 276.350 827.642, 282.042 831.261, 285.148 832.916 C 288.255 834.572, 291.760 837.151, 292.937 838.647 C 294.114 840.144, 296.747 842.489, 298.789 843.858 C 300.830 845.228, 302.725 846.622, 303 846.957 C 303.275 847.292, 305.975 849.101, 309 850.977 C 312.025 852.854, 316.075 855.565, 318 857.001 C 325.708 862.753, 333.943 863.755, 339 859.556 C 339.825 858.871, 342.975 856.865, 346 855.098 C 351.827 851.694, 361.492 845.743, 364 844.015 C 364.825 843.446, 368.650 841.001, 372.500 838.580 C 376.350 836.160, 381.545 832.604, 384.044 830.679 C 386.543 828.754, 391.493 825.718, 395.044 823.932 C 398.595 822.146, 403.160 819.207, 405.188 817.401 C 407.216 815.595, 411.491 812.891, 414.688 811.392 C 417.885 809.893, 420.725 808.404, 421 808.083 C 421.275 807.762, 422.601 807.377, 423.947 807.227 C 425.293 807.077, 427.223 806.064, 428.236 804.977 C 429.249 803.890, 430.735 802.933, 431.539 802.850 C 432.343 802.768, 433.563 802.655, 434.250 802.600 C 434.938 802.545, 436.047 802.050, 436.715 801.500 C 437.384 800.950, 438.602 799.938, 439.423 799.250 C 440.244 798.563, 441.610 798, 442.458 798 C 443.306 798, 444 797.475, 444 796.833 C 444 796.192, 444.301 795.968, 444.669 796.336 C 445.037 796.703, 446.111 796.304, 447.057 795.448 C 448.003 794.593, 449.695 793.823, 450.819 793.739 C 451.942 793.654, 452.641 793.228, 452.372 792.792 C 452.102 792.357, 452.484 792, 453.219 792 C 453.954 792, 455.352 791.070, 456.326 789.933 C 458.186 787.760, 460.717 787.833, 460.194 790.044 C 459.954 791.056, 460.200 791.079, 461.317 790.152 C 462.103 789.499, 463.479 789.246, 464.373 789.590 C 465.268 789.933, 466 789.826, 466 789.351 C 466 788.209, 471.939 785.606, 472.733 786.400 C 473.073 786.740, 474.422 786.012, 475.731 784.783 C 477.560 783.065, 477.958 782.947, 477.449 784.274 C 477.084 785.223, 476.497 786, 476.143 786 C 475.148 786, 476.087 803.456, 477.103 803.833 C 478.121 804.212, 478.307 809.036, 477.395 811.412 C 477.063 812.279, 476.427 812.764, 475.983 812.489 C 475.539 812.215, 475.847 814.805, 476.669 818.245 C 477.744 822.743, 477.959 826.607, 477.436 832 C 476.271 844.006, 476.164 850, 477.115 850 C 477.602 850, 478 849.100, 478 848 C 478 846.900, 478.450 846, 479 846 C 479.550 846, 480 848.250, 480 851 C 480 855.615, 480.185 856, 482.406 856 C 484.320 856, 484.706 856.409, 484.290 858 C 484 859.107, 482.926 860, 481.883 860 C 480.667 860, 480 860.708, 480 862 C 480 863.333, 479.333 864, 478 864 C 476.900 864, 476 864.477, 476 865.059 C 476 865.641, 476.359 865.896, 476.798 865.625 C 477.237 865.354, 478.249 865.595, 479.048 866.160 C 480.224 866.993, 480.162 867.080, 478.720 866.614 C 477.473 866.212, 476.599 866.786, 475.806 868.527 C 474.743 870.859, 474.528 870.921, 472.371 869.508 C 469.716 867.768, 466 867.506, 466 869.059 C 466 869.641, 466.403 869.869, 466.895 869.565 C 467.388 869.260, 468.048 869.684, 468.364 870.506 C 468.728 871.456, 468.342 872, 467.302 872 C 466.403 872, 465.960 872.293, 466.318 872.651 C 466.676 873.009, 466.188 873.910, 465.234 874.654 C 463.592 875.934, 463.592 875.973, 465.250 875.395 C 466.212 875.060, 467 875.236, 467 875.786 C 467 876.874, 464.043 878.443, 462.613 878.113 C 461.128 877.771, 457 882.229, 457 884.174 C 457 885.178, 456.311 886, 455.469 886 C 454.626 886, 453.679 886.672, 453.364 887.494 C 453.048 888.316, 452.388 888.740, 451.895 888.435 C 451.403 888.131, 451 888.431, 451 889.102 C 451 890.844, 445.096 895.982, 441.148 897.675 C 439.305 898.465, 436.857 899.987, 435.710 901.056 C 434.562 902.125, 433.033 903, 432.311 903 C 431.590 903, 431 903.444, 431 903.987 C 431 904.531, 429.313 906.118, 427.250 907.516 C 425.188 908.913, 421.025 911.867, 418 914.080 C 414.975 916.293, 411.425 918.867, 410.110 919.802 C 405.867 922.817, 396.555 930.653, 394.595 932.857 C 393.547 934.036, 392.197 935.001, 391.595 935.001 C 390.993 935.002, 389.150 936.166, 387.500 937.589 C 385.850 939.012, 381.913 941.775, 378.750 943.730 C 375.587 945.685, 373 947.670, 373 948.142 C 373 948.614, 372.373 949, 371.607 949 C 370.841 949, 369.953 949.679, 369.635 950.509 C 369.317 951.338, 367.806 952.559, 366.278 953.221 C 364.750 953.884, 360.184 956.692, 356.130 959.463 C 352.077 962.233, 346.677 965.777, 344.130 967.338 C 341.584 968.899, 338.150 971.430, 336.500 972.961 C 330.929 978.133, 323.902 976.786, 313.889 968.628 C 311.355 966.563, 304.444 962.060, 299.114 958.999 C 297.676 958.174, 296.425 957.105, 296.333 956.624 C 296.131 955.571, 291.731 952.537, 287.223 950.342 C 285.421 949.465, 282.429 947.229, 280.573 945.373 C 278.718 943.518, 276.543 942, 275.741 942 C 274.938 942, 272.306 940.429, 269.891 938.510 C 267.476 936.590, 264.712 935.015, 263.750 935.010 C 262.788 935.004, 262 934.550, 262 934 C 262 933.450, 261.409 933, 260.687 933 C 259.965 933, 258.081 931.650, 256.500 930 C 254.919 928.350, 252.920 927, 252.056 927 C 251.193 927, 248.240 924.989, 245.493 922.532 C 242.747 920.074, 239.331 917.803, 237.901 917.485 C 236.472 917.168, 233.796 915.353, 231.955 913.454 C 230.114 911.554, 228.007 910, 227.272 910 C 226.538 910, 225.678 909.325, 225.362 908.500 C 225.045 907.675, 224.341 907, 223.797 907 C 223.254 907, 221.533 906.092, 219.975 904.982 C 218.190 903.711, 216.904 903.347, 216.501 903.998 C 216.149 904.567, 215.443 904.774, 214.931 904.457 C 214.419 904.141, 214 904.058, 214 904.273 C 214 904.487, 216.363 906.177, 219.250 908.026 C 222.138 909.876, 224.725 911.640, 225 911.947 C 225.275 912.254, 227.525 913.853, 230 915.500 C 232.475 917.147, 234.725 918.750, 235 919.063 C 235.275 919.376, 238.200 921.387, 241.500 923.531 C 244.800 925.676, 247.725 927.688, 248 928.002 C 248.275 928.317, 250.750 930.008, 253.500 931.761 C 256.250 933.513, 258.951 935.297, 259.502 935.724 C 260.052 936.151, 266.577 940.550, 274 945.500 C 281.423 950.450, 287.948 954.845, 288.498 955.267 C 289.049 955.689, 290.974 957.039, 292.776 958.267 C 294.578 959.495, 301.553 964.294, 308.276 968.931 C 314.999 973.569, 322.025 978.406, 323.890 979.681 C 328.762 983.014, 328.384 983.167, 348.823 969.635 C 481.565 881.754, 589.065 810.189, 591.250 808.246 C 592.903 806.777, 593 798.018, 593 651.032 L 593 495.374 590.250 492.827 C 588.737 491.426, 577.825 483.845, 566 475.980 C 546.012 462.685, 527.929 450.462, 513.500 440.494 C 510.200 438.215, 501.650 432.376, 494.500 427.520 C 487.350 422.663, 475.803 414.710, 468.841 409.845 C 461.878 404.980, 456.028 401.014, 455.841 401.030 C 455.653 401.047, 454.600 401.570, 453.500 402.192 M 234.755 456.846 C 232.695 457.756, 231.008 458.900, 231.005 459.390 C 231.002 459.879, 230.213 460.877, 229.250 461.608 C 228.287 462.339, 228.028 462.951, 228.673 462.968 C 229.319 462.986, 231.119 461.952, 232.673 460.670 C 234.228 459.389, 236.287 458.053, 237.250 457.702 C 238.213 457.350, 239 456.599, 239 456.031 C 239 455.464, 238.887 455.043, 238.750 455.096 C 238.613 455.149, 236.815 455.936, 234.755 456.846 M 184.500 582.195 C 183.400 582.819, 182.275 583.640, 182 584.019 C 181.725 584.399, 180.150 585.432, 178.500 586.315 C 176.850 587.198, 175.985 587.938, 176.579 587.960 C 177.681 588.001, 187 582.140, 187 581.406 C 187 580.837, 186.762 580.912, 184.500 582.195 M 233.445 625 C 233.445 642.325, 233.582 649.413, 233.748 640.750 C 233.915 632.087, 233.915 617.913, 233.748 609.250 C 233.582 600.587, 233.445 607.675, 233.445 625 M 209 780.500 C 212.638 783.539, 215 784.787, 215 783.670 C 215 783.142, 206.244 777, 205.492 777 C 205.117 777, 206.696 778.575, 209 780.500 M 478.977 783.055 C 477.527 786.557, 476.917 797.248, 478.062 799.100 C 479.717 801.777, 482.861 784.360, 481.244 781.472 C 480.465 780.080, 480.105 780.331, 478.977 783.055 M 223.441 790.532 C 224.509 791.339, 225.859 791.986, 226.441 791.968 C 227.024 791.951, 226.626 791.276, 225.559 790.468 C 224.491 789.661, 223.141 789.014, 222.559 789.032 C 221.976 789.049, 222.374 789.724, 223.441 790.532 M 229.260 794.085 C 230.227 794.649, 232.119 796.210, 233.464 797.555 C 235.536 799.627, 239 800.909, 239 799.604 C 239 798.956, 229.403 792.997, 228.412 793.030 C 227.911 793.047, 228.292 793.522, 229.260 794.085 M 482.141 843.750 C 482.055 850.011, 482.389 854, 483 854 C 484.141 854, 484.160 847.090, 483.042 839 C 482.362 834.085, 482.267 834.591, 482.141 843.750 M 473.070 853.250 C 473.032 854.763, 473.450 856, 474 856 C 475.174 856, 475.174 855.231, 474 852.500 C 473.238 850.728, 473.133 850.813, 473.070 853.250 M 200.574 895.444 C 203.283 897.338, 205.978 899.302, 206.563 899.809 C 208.572 901.549, 212.172 903.161, 212.752 902.581 C 213.072 902.261, 212.870 902, 212.304 902 C 211.445 902, 207.020 898.927, 202.437 895.147 C 200.932 893.906, 197.270 892, 196.390 892 C 195.982 892, 197.865 893.550, 200.574 895.444" stroke="none" fill="#faf3bc" fill-rule="evenodd"/><path d="M 326.515 10.976 C 325.807 12.121, 315.607 19, 314.617 19 C 314.245 19, 311.664 20.800, 308.881 23 C 306.098 25.200, 303.361 27, 302.799 27 C 302.237 27, 299.628 28.800, 297 31 C 294.372 33.200, 291.709 35, 291.082 35 C 290.454 35, 287.664 36.800, 284.881 39 C 282.098 41.200, 279.361 43, 278.799 43 C 278.237 43, 275.628 44.800, 273 47 C 270.372 49.200, 267.672 51, 267 51 C 266.328 51, 263.628 52.800, 261 55 C 258.372 57.200, 255.648 59, 254.945 59 C 254.243 59, 252.955 59.673, 252.084 60.495 C 248.502 63.875, 244.136 67, 242.994 67 C 242.325 67, 239.628 68.800, 237 71 C 234.372 73.200, 231.722 75, 231.111 75 C 229.998 75, 227.991 76.539, 223.611 80.750 C 222.324 81.987, 220.410 83, 219.358 83 C 218.305 83, 216.714 83.787, 215.820 84.750 C 212 88.865, 209.094 91, 207.310 91 C 206.261 91, 203.530 92.800, 201.240 95 C 198.951 97.200, 196.214 99, 195.159 99 C 194.104 99, 191.386 100.800, 189.119 103 C 186.852 105.200, 184.291 107, 183.428 107 C 182.565 107, 179.724 108.800, 177.115 111 C 174.506 113.200, 171.670 115, 170.812 115 C 169.954 115, 167.284 116.800, 164.877 119 C 162.470 121.200, 159.925 123, 159.221 123 C 158.517 123, 155.664 124.800, 152.881 127 C 150.098 129.200, 147.398 131, 146.881 131 C 146.364 131, 143.664 132.800, 140.881 135 C 138.098 137.200, 135.398 139, 134.881 139 C 134.364 139, 131.664 140.800, 128.881 143 C 126.098 145.200, 123.264 147, 122.585 147 C 121.905 147, 120.346 148.067, 119.121 149.371 C 117.896 150.675, 115.237 152.588, 113.213 153.621 C 111.189 154.655, 107.347 157.188, 104.677 159.250 C 102.006 161.313, 99.398 163, 98.881 163 C 98.364 163, 95.664 164.800, 92.881 167 C 90.098 169.200, 87.398 171, 86.881 171 C 86.364 171, 83.664 172.800, 80.881 175 C 78.098 177.200, 75.384 179, 74.852 179 C 72.942 179, 66.082 185.307, 64.604 188.422 C 63.092 191.609, 62.932 571.266, 64.443 572.776 C 65.664 573.998, 71.351 573.240, 72.473 571.706 C 73.128 570.811, 74.751 569.609, 76.081 569.035 C 77.412 568.462, 80.525 566.449, 83 564.562 C 85.475 562.676, 87.885 561.103, 88.356 561.066 C 88.827 561.030, 91.036 559.538, 93.265 557.750 C 95.495 555.962, 98.534 553.825, 100.020 553 C 101.505 552.175, 104.696 550.150, 107.110 548.500 C 109.525 546.850, 111.950 545.265, 112.500 544.979 C 116.190 543.056, 121 539.672, 121 538.999 C 121 538.557, 122.237 537.705, 123.750 537.106 C 125.263 536.507, 128.525 534.468, 131 532.575 C 133.475 530.682, 135.818 529.103, 136.206 529.066 C 137.213 528.972, 143.551 524.591, 145.499 522.644 C 146.403 521.740, 147.538 521, 148.021 521 C 148.504 521, 150.987 519.537, 153.538 517.750 C 156.089 515.962, 158.924 514.041, 159.838 513.480 C 160.752 512.918, 163.484 511.118, 165.910 509.480 C 168.335 507.841, 171.324 505.825, 172.552 505 C 173.780 504.175, 176.881 502.038, 179.443 500.250 C 182.004 498.462, 184.283 497, 184.506 497 C 185.029 497, 191.127 492.864, 193.034 491.215 C 193.840 490.518, 196.750 488.508, 199.500 486.748 C 202.250 484.988, 205.095 482.975, 205.821 482.274 C 206.548 481.573, 207.541 481, 208.027 481 C 209.050 481, 216.203 476.269, 216.978 475.079 C 217.265 474.639, 218.850 473.537, 220.500 472.631 C 222.150 471.724, 226.650 468.736, 230.499 465.991 C 234.348 463.246, 238.039 461, 238.699 461 C 239.360 461, 240.260 460.430, 240.700 459.733 C 241.537 458.406, 255.186 449, 256.273 449 C 256.618 449, 258.987 447.537, 261.538 445.750 C 264.089 443.962, 266.924 442.041, 267.838 441.480 C 268.752 440.918, 271.477 439.118, 273.893 437.480 C 276.309 435.841, 279.009 434.041, 279.893 433.480 C 282.728 431.679, 289.374 427.162, 293.785 424.036 C 296.142 422.366, 298.355 421, 298.702 421 C 299.048 421, 300.045 420.304, 300.916 419.453 C 303.003 417.416, 313.988 410.230, 322.129 405.577 C 323.575 404.750, 325.023 403.382, 325.347 402.537 C 325.672 401.692, 326.874 401, 328.018 401 C 330.819 401, 337.417 394.528, 336.651 392.533 C 335.825 390.380, 333.251 390.626, 331.768 393 C 330.967 394.283, 329.436 395, 327.500 395 C 325.564 395, 324.033 395.717, 323.232 397 C 322.526 398.131, 320.900 399, 319.492 399 C 318.121 399, 316.100 399.900, 315 401 C 313.900 402.100, 312.100 403, 311 403 C 309.900 403, 308.100 403.900, 307 405 C 305.900 406.100, 304.058 407, 302.908 407 C 301.757 407, 299.671 407.900, 298.273 409 C 296.874 410.100, 295.074 411, 294.273 411 C 293.471 411, 291.671 411.900, 290.273 413 C 288.874 414.100, 286.849 415, 285.773 415 C 284.696 415, 282.671 415.900, 281.273 417 C 279.874 418.100, 277.946 419, 276.988 419 C 276.029 419, 274.685 419.675, 274 420.500 C 273.315 421.325, 272.202 422, 271.526 422 C 270.851 422, 268.182 423.125, 265.596 424.500 C 263.010 425.875, 260.312 427, 259.600 427 C 258.888 427, 257.268 427.900, 256 429 C 254.732 430.100, 252.708 431, 251.502 431 C 250.296 431, 248.495 431.900, 247.500 433 C 246.505 434.100, 244.635 435, 243.345 435 C 242.055 435, 240.100 435.900, 239 437 C 237.900 438.100, 235.975 439, 234.722 439 C 233.469 439, 231.674 439.900, 230.732 441 C 229.790 442.100, 228.074 443, 226.918 443 C 225.761 443, 223.671 443.900, 222.273 445 C 220.874 446.100, 218.849 447, 217.773 447 C 216.696 447, 214.671 447.900, 213.273 449 C 211.874 450.100, 210.074 451, 209.273 451 C 208.471 451, 206.671 451.900, 205.273 453 C 203.874 454.100, 202.074 455, 201.273 455 C 200.471 455, 198.671 455.900, 197.273 457 C 195.874 458.100, 194.068 459, 193.258 459 C 191.368 459, 179.268 464.758, 178.480 466.033 C 178.151 466.565, 176.810 467, 175.500 467 C 174.190 467, 172.840 467.450, 172.500 468 C 172.160 468.550, 171.470 469, 170.967 469 C 170.418 469, 170.062 424.403, 170.078 357.750 L 170.105 246.500 172.739 243.750 C 174.189 242.238, 175.717 241, 176.137 241 C 176.556 241, 178.987 239.537, 181.538 237.750 C 184.089 235.962, 186.924 234.050, 187.838 233.500 C 188.752 232.949, 194.162 229.349, 199.860 225.500 C 205.558 221.650, 210.958 218.050, 211.860 217.500 C 212.762 216.949, 218.162 213.349, 223.860 209.500 C 229.558 205.650, 234.958 202.041, 235.860 201.480 C 236.762 200.918, 239.480 199.118, 241.900 197.480 C 244.319 195.841, 246.997 194.050, 247.851 193.500 C 248.704 192.950, 251.449 191.056, 253.951 189.292 C 256.453 187.527, 260.863 184.681, 263.750 182.968 C 266.637 181.255, 269 179.467, 269 178.994 C 269 178.521, 269.942 177.836, 271.094 177.470 C 272.245 177.105, 275.219 175.387, 277.701 173.653 C 283.502 169.600, 286.829 167.441, 290.250 165.505 C 291.762 164.649, 293 163.541, 293 163.042 C 293 162.543, 293.942 161.836, 295.094 161.470 C 296.245 161.105, 299.219 159.387, 301.701 157.653 C 307.502 153.600, 310.829 151.441, 314.250 149.505 C 315.762 148.649, 317 147.541, 317 147.042 C 317 146.543, 318.004 145.816, 319.231 145.427 C 321.606 144.673, 326.057 141.782, 329.750 138.594 C 331.978 136.671, 332.022 136.671, 334.250 138.594 C 337.342 141.263, 342.779 145, 343.571 145 C 343.929 145, 346.372 146.800, 349 149 C 351.628 151.200, 354.237 153, 354.799 153 C 355.361 153, 358.098 154.800, 360.881 157 C 363.664 159.200, 366.364 161, 366.881 161 C 367.398 161, 369.998 162.697, 372.660 164.770 C 377.008 168.157, 380.267 170.439, 385.107 173.488 C 385.991 174.045, 388.691 175.841, 391.107 177.480 C 393.523 179.118, 396.241 180.918, 397.146 181.480 C 401.331 184.074, 410.554 190.505, 411.022 191.155 C 411.951 192.446, 418.734 196.781, 420.897 197.467 C 422.054 197.834, 423 198.543, 423 199.042 C 423 199.541, 424.238 200.649, 425.750 201.505 C 429.101 203.401, 430.628 204.393, 445.640 214.427 C 452.163 218.786, 459.300 223.774, 461.500 225.511 C 463.700 227.247, 467.525 229.891, 470 231.385 C 472.475 232.880, 476.525 235.625, 479 237.485 C 481.475 239.345, 483.874 240.897, 484.332 240.934 C 484.789 240.970, 487.148 242.626, 489.574 244.614 L 493.985 248.229 494.242 310.364 L 494.500 372.500 497.183 372.810 C 499.073 373.028, 500.191 372.511, 500.968 371.060 C 501.574 369.927, 503.029 369, 504.201 369 C 506.241 369, 507.233 368.306, 512.421 363.250 C 513.690 362.012, 515.540 361, 516.531 361 C 517.522 361, 519.045 360.334, 519.916 359.519 C 524.862 354.894, 527.468 352.998, 528.896 352.986 C 529.778 352.978, 532.489 351.178, 534.920 348.986 C 537.351 346.794, 539.988 345, 540.781 345 C 541.574 345, 544.372 343.200, 547 341 C 549.628 338.800, 552.291 337, 552.918 337 C 553.546 337, 556.336 335.200, 559.119 333 C 561.902 330.800, 564.602 329, 565.119 329 C 565.636 329, 568.336 327.200, 571.119 325 C 573.902 322.800, 576.637 321, 577.195 321 C 577.754 321, 579.626 319.868, 581.356 318.485 C 583.085 317.102, 584.985 315.582, 585.577 315.107 C 586.169 314.633, 587.744 313.907, 589.077 313.494 C 590.410 313.081, 592.719 311.339, 594.209 309.622 L 596.919 306.500 596.959 248.313 L 597 190.126 593.250 186.572 C 591.188 184.617, 588.970 183.013, 588.321 183.009 C 587.673 183.004, 586.403 182.260, 585.499 181.356 C 583.343 179.200, 577.133 175, 576.102 175 C 575.369 175, 572.126 172.418, 567.916 168.481 C 567.045 167.666, 565.648 167, 564.812 167 C 563.458 167, 560.822 165.068, 555.916 160.481 C 555.045 159.666, 553.757 159, 553.055 159 C 552.352 159, 549.628 157.200, 547 155 C 544.372 152.800, 541.672 151, 541 151 C 540.328 151, 537.628 149.200, 535 147 C 532.372 144.800, 529.777 143, 529.232 143 C 528.687 143, 525.633 140.975, 522.446 138.500 C 519.258 136.025, 516.260 134, 515.783 134 C 514.890 134, 513.466 132.971, 509.557 129.500 C 508.318 128.400, 505.167 126.375, 502.554 125 C 499.942 123.625, 497.286 121.825, 496.652 121 C 496.018 120.175, 493.318 118.375, 490.652 117 C 487.986 115.625, 485.286 113.818, 484.652 112.985 C 484.018 112.151, 482.375 110.896, 481 110.195 C 476.047 107.671, 473.516 106.061, 472.506 104.792 C 470.958 102.848, 465.244 99, 463.905 99 C 463.258 99, 461.676 97.987, 460.389 96.750 C 455.622 92.167, 453.956 91, 452.180 91 C 451.180 91, 449.395 89.988, 448.214 88.750 C 443.951 84.282, 442.306 83, 440.836 83 C 440.013 83, 437.351 81.206, 434.920 79.014 C 432.489 76.822, 429.887 75.022, 429.139 75.014 C 428.390 75.006, 425.690 73.261, 423.139 71.135 C 420.587 69.009, 417.571 66.980, 416.436 66.627 C 415.302 66.273, 412.657 64.412, 410.561 62.492 C 408.464 60.571, 406.162 59, 405.446 59 C 404.729 59, 403.548 58.432, 402.821 57.737 C 402.095 57.042, 400.375 55.707, 399 54.770 C 397.625 53.832, 394.572 51.701, 392.215 50.033 C 389.858 48.365, 387.521 47, 387.021 47 C 386.522 47, 385.525 46.165, 384.807 45.143 C 384.088 44.122, 382.488 42.967, 381.250 42.576 C 380.012 42.185, 379 41.500, 379 41.054 C 379 40.608, 377.650 39.683, 376 39 C 374.350 38.317, 373 37.442, 373 37.056 C 373 36.233, 365.208 31, 363.982 31 C 363.520 31, 362.403 30.260, 361.499 29.356 C 359.598 27.455, 353.181 23, 352.344 23 C 352.033 23, 349.690 21.294, 347.139 19.209 C 344.587 17.124, 341.375 14.856, 340 14.169 C 338.625 13.483, 336.375 12.270, 335 11.475 C 332.131 9.816, 327.404 9.538, 326.515 10.976 M 317.128 20.750 C 310.926 25.013, 304.133 29.625, 302.032 31 C 289.288 39.339, 263.522 56.613, 258 60.520 C 254.425 63.050, 249.025 66.641, 246 68.500 C 242.975 70.359, 237.575 73.952, 234 76.485 C 226.908 81.509, 219.643 86.374, 214.566 89.500 C 212.779 90.600, 209.558 92.744, 207.409 94.265 C 198.022 100.906, 193.271 104.109, 190 106 C 188.075 107.113, 184.250 109.607, 181.500 111.541 C 178.750 113.476, 175.669 115.608, 174.654 116.279 C 169.722 119.540, 169.372 119.933, 171.984 119.273 C 173.350 118.927, 175.150 117.893, 175.984 116.975 C 176.818 116.057, 179.465 114.698, 181.867 113.955 C 184.368 113.180, 187.093 111.441, 188.244 109.883 C 189.487 108.203, 190.970 107.302, 192.127 107.525 C 193.157 107.723, 194 107.461, 194 106.943 C 194 106.424, 194.462 106, 195.027 106 C 196.288 106, 212.191 94.063, 213.300 92.283 C 213.740 91.577, 214.914 91, 215.910 91 C 216.906 91, 219.441 89.832, 221.544 88.405 C 223.647 86.978, 226.298 85.401, 227.434 84.901 C 228.570 84.400, 232.200 81.981, 235.500 79.526 C 238.800 77.070, 244.275 73.471, 247.668 71.528 C 251.060 69.584, 253.985 67.610, 254.168 67.140 C 254.350 66.670, 258.100 63.987, 262.500 61.178 C 266.900 58.368, 271.044 55.604, 271.708 55.035 C 272.372 54.466, 273.323 54, 273.820 54 C 274.318 54, 276.345 52.763, 278.324 51.250 C 280.304 49.737, 287.593 44.900, 294.522 40.500 C 301.452 36.100, 309.006 31.045, 311.311 29.266 C 313.615 27.488, 318.714 23.829, 322.643 21.136 L 329.785 16.239 334.858 19.013 C 337.647 20.539, 344.324 25.097, 349.695 29.143 C 360.689 37.426, 360.490 37.284, 372.635 45.492 C 377.511 48.787, 382.047 51.937, 382.715 52.492 C 383.384 53.046, 384.513 53.950, 385.226 54.500 C 385.938 55.050, 388.596 57.170, 391.132 59.212 C 393.668 61.253, 395.943 62.724, 396.187 62.480 C 396.431 62.236, 399.301 64.555, 402.565 67.633 C 405.829 70.711, 410.066 74.416, 411.980 75.865 C 413.894 77.314, 416.144 79.041, 416.980 79.702 C 424.590 85.718, 430.492 90, 431.175 90 C 431.629 90, 432 90.702, 432 91.559 C 432 92.416, 432.411 92.864, 432.913 92.554 C 433.415 92.243, 435.683 93.774, 437.952 95.954 C 440.222 98.134, 442.290 99.930, 442.549 99.944 C 443.303 99.985, 458.565 109.994, 457.877 109.997 C 457.535 109.999, 459.891 112.588, 463.114 115.750 C 466.336 118.912, 468.979 122.089, 468.986 122.809 C 468.994 123.529, 469.414 123.862, 469.919 123.550 C 470.425 123.237, 471.518 123.661, 472.348 124.491 C 473.178 125.321, 474.309 126, 474.861 126 C 475.413 126, 476.155 126.912, 476.508 128.026 C 476.868 129.159, 477.864 129.931, 478.766 129.776 C 481.034 129.388, 482.673 135.228, 481.202 138.455 C 480.598 139.782, 480.447 141.010, 480.866 141.184 C 481.286 141.358, 481.308 142.625, 480.914 144 L 480.199 146.500 480.068 144 C 479.871 140.252, 476 135.780, 476 139.301 C 476 143.060, 473.461 145.984, 470.191 145.992 C 468.206 145.997, 467.133 146.407, 467.510 147.016 C 467.856 147.575, 468.557 147.774, 469.069 147.457 C 469.581 147.141, 470 147.795, 470 148.911 C 470 150.026, 470.879 152.504, 471.954 154.417 C 473.185 156.610, 474.132 160.779, 474.515 165.698 C 474.849 169.989, 475.288 175.412, 475.491 177.750 C 475.835 181.735, 475.338 182.527, 472.750 182.118 C 472.337 182.053, 472 182.450, 472 183 C 472 183.550, 472.659 184, 473.465 184 C 474.669 184, 474.882 185.734, 474.665 193.750 C 474.519 199.113, 474.740 204.489, 475.155 205.697 C 475.737 207.391, 475.463 208.036, 473.955 208.514 C 472.880 208.856, 472 209.779, 472 210.567 C 472 211.355, 471.550 212, 471 212 C 470.450 212, 470.053 211.662, 470.118 211.250 C 470.468 209.039, 469.790 208, 468 208 C 466.900 208, 465.993 208.563, 465.985 209.250 C 465.974 210.083, 465.646 210, 465 209 C 464.467 208.175, 464.024 207.893, 464.015 208.372 C 464.007 208.852, 463.438 208.798, 462.750 208.253 C 462.063 207.707, 459.813 206.717, 457.750 206.053 C 455.688 205.388, 454 204.482, 454 204.039 C 454 202.357, 446.904 200.855, 445.877 202.319 C 445.044 203.506, 441 201.284, 441 199.639 C 441 198.001, 437.384 194.716, 433.500 192.827 C 429.083 190.679, 425.765 188.674, 424.133 187.166 C 423.339 186.433, 421.747 185.421, 420.595 184.919 C 419.443 184.416, 417.626 183.441, 416.558 182.752 C 409.504 178.202, 403.011 174.444, 395.324 170.463 C 390.471 167.950, 383.800 163.903, 380.500 161.470 C 377.200 159.036, 372.250 155.732, 369.500 154.127 C 366.750 152.522, 362.475 149.812, 360 148.105 C 357.525 146.398, 352.575 142.980, 349 140.510 C 341.272 135.171, 336.792 133.032, 334.316 133.502 C 333.317 133.692, 332.275 133.888, 332 133.938 C 331.725 133.988, 332.478 134.585, 333.674 135.265 C 335.628 136.375, 345.032 142.772, 366.358 157.500 C 370.340 160.250, 376.276 164.300, 379.549 166.500 C 382.822 168.700, 386.019 170.950, 386.653 171.500 C 387.852 172.541, 423.243 196.624, 430.003 201 C 435.224 204.380, 463.623 223.726, 474 230.972 C 474.825 231.548, 479.325 234.522, 484 237.580 C 497.426 246.361, 496 237.869, 496 309.052 C 496 369.236, 496.233 373.834, 499.103 370.376 C 499.834 369.496, 506.297 364.932, 513.466 360.235 C 550.585 335.913, 588.760 310.438, 590.750 308.660 L 593 306.651 593 248.341 L 593 190.030 588.250 186.376 C 585.638 184.366, 571.350 174.483, 556.500 164.415 C 541.650 154.346, 522.358 141.246, 513.628 135.304 C 504.898 129.362, 495.396 122.925, 492.511 121 C 489.627 119.075, 483.944 115.226, 479.883 112.447 C 475.823 109.668, 462.600 100.702, 450.500 92.523 C 406.283 62.634, 364.037 33.908, 356.500 28.606 C 354.850 27.445, 352.761 26.046, 351.859 25.497 C 350.956 24.949, 346.367 21.913, 341.661 18.750 C 330.813 11.460, 330.621 11.475, 317.128 20.750 M 321.645 136.589 C 319.915 137.737, 316.700 139.868, 314.500 141.324 C 312.300 142.780, 306 147.092, 300.500 150.906 C 295 154.720, 286.700 160.239, 282.056 163.171 C 277.412 166.102, 271.337 170.455, 268.556 172.845 C 265.775 175.235, 262.825 177.485, 262 177.845 C 259.179 179.076, 248.613 186.496, 245.054 189.745 C 243.099 191.530, 241.050 193.011, 240.500 193.036 C 239.950 193.061, 237.972 194.388, 236.104 195.985 C 233.332 198.356, 233.118 198.782, 234.939 198.306 C 236.166 197.985, 237.404 197.110, 237.692 196.361 C 237.979 195.613, 238.728 194.999, 239.357 194.999 C 239.986 194.998, 241.807 193.873, 243.406 192.499 C 245.004 191.124, 246.930 190, 247.687 190 C 248.444 190, 249.322 189.325, 249.638 188.500 C 249.955 187.675, 250.650 187, 251.183 187 C 251.717 187, 255.606 184.680, 259.826 181.845 C 271.275 174.154, 273.467 172.574, 273.833 171.750 C 274.017 171.338, 274.649 171, 275.239 171 C 275.829 171, 277.704 169.954, 279.406 168.676 C 281.108 167.398, 283.175 166.041, 284 165.660 C 285.701 164.875, 289.267 162.559, 304.667 152.242 C 310.625 148.250, 316.338 144.425, 317.363 143.742 C 318.388 143.059, 320.812 141.262, 322.751 139.750 C 324.689 138.238, 326.695 137, 327.209 137 C 327.723 137, 328.801 136.342, 329.605 135.538 C 331.956 133.187, 325.479 134.042, 321.645 136.589 M 479.568 159.585 C 478.837 162.496, 479.657 166, 481.067 166 C 481.580 166, 482 165.550, 482 165 C 482 164.450, 481.640 164, 481.201 164 C 480.761 164, 480.585 162.425, 480.810 160.500 C 481.287 156.414, 480.508 155.840, 479.568 159.585 M 478.223 179.572 C 478.113 180.907, 478.467 182, 479.011 182 C 480.182 182, 480.351 178.335, 479.212 177.631 C 478.779 177.363, 478.334 178.237, 478.223 179.572 M 228.500 200.945 C 226.039 201.952, 222.272 206, 223.795 206 C 224.403 206, 225.260 205.389, 225.700 204.642 C 226.140 203.894, 227.850 202.562, 229.500 201.682 C 232.628 200.012, 231.968 199.526, 228.500 200.945 M 479.046 205.086 C 479.660 206.233, 480.406 206.927, 480.705 206.629 C 481.529 205.805, 480.209 203, 478.996 203 C 478.257 203, 478.272 203.639, 479.046 205.086 M 216.032 209.318 C 212.589 210.967, 207.878 215.344, 210.559 214.402 C 211.626 214.027, 212.950 213.180, 213.500 212.519 C 214.050 211.859, 215.850 210.590, 217.500 209.699 C 220.936 207.845, 219.751 207.536, 216.032 209.318 M 303.277 409.320 C 272.523 424.777, 256.164 432.698, 251.997 434.151 C 250.349 434.725, 249 435.503, 249 435.880 C 249 436.256, 246.975 437.161, 244.500 437.892 C 242.025 438.623, 240 439.549, 240 439.950 C 240 440.352, 238.200 441.274, 236 442 C 233.800 442.726, 232 443.649, 232 444.052 C 232 444.454, 230.875 445.066, 229.500 445.411 C 226.793 446.090, 226.055 448, 228.500 448 C 229.325 448, 230 447.608, 230 447.128 C 230 446.648, 231.817 445.965, 234.038 445.610 C 236.259 445.255, 238.322 444.325, 238.622 443.543 C 238.922 442.762, 240.592 441.812, 242.334 441.433 C 244.075 441.054, 246.388 440.127, 247.473 439.372 C 248.557 438.618, 250.139 438, 250.987 438 C 251.836 438, 254.098 437.160, 256.015 436.133 C 257.932 435.107, 260.957 433.947, 262.739 433.556 C 264.520 433.166, 266.232 432.433, 266.544 431.928 C 267.560 430.284, 271 428.812, 271 430.021 C 271 432.546, 264.478 437.055, 253.284 442.269 C 252.065 442.837, 251.306 443.687, 251.598 444.158 C 251.889 444.629, 251.433 445.280, 250.586 445.605 C 248.504 446.404, 239.598 455, 240.852 455 C 241.399 455, 243.184 453.875, 244.818 452.500 C 246.452 451.125, 248.066 450, 248.405 450 C 248.743 450, 251.153 448.533, 253.760 446.741 C 256.367 444.948, 259.850 442.812, 261.500 441.995 C 263.150 441.177, 267.650 438.233, 271.500 435.453 C 275.350 432.673, 281.650 428.437, 285.500 426.040 C 292.485 421.692, 294.856 420.171, 317.500 405.512 C 338.095 392.179, 336.572 392.586, 303.277 409.320 M 451.232 401 C 450.545 402.100, 449.012 403, 447.825 403 C 445.761 403, 444.771 403.690, 439.579 408.750 C 438.310 409.988, 436.460 411, 435.469 411 C 433.742 411, 432.701 411.759, 427.579 416.750 C 426.310 417.988, 424.535 419, 423.635 419 C 422.736 419, 421.212 419.686, 420.250 420.525 C 414.428 425.599, 412.621 427, 411.898 427 C 410.593 427, 403.573 432.017, 402.700 433.574 C 402.260 434.358, 401.268 435, 400.495 435 C 398.974 435, 393.158 438.699, 390.501 441.356 C 389.597 442.260, 388.462 443, 387.979 443 C 387.496 443, 385.013 444.462, 382.462 446.250 C 379.911 448.038, 377.076 449.959, 376.162 450.520 C 375.248 451.082, 372.523 452.882, 370.107 454.520 C 367.691 456.159, 364.991 457.959, 364.107 458.520 C 363.223 459.082, 360.523 460.882, 358.107 462.520 C 355.691 464.159, 352.991 465.959, 352.107 466.520 C 351.223 467.082, 348.523 468.882, 346.107 470.520 C 343.691 472.159, 340.991 473.959, 340.107 474.520 C 339.223 475.082, 336.523 476.882, 334.107 478.520 C 331.691 480.159, 328.991 481.959, 328.107 482.520 C 327.223 483.082, 324.523 484.882, 322.107 486.520 C 319.691 488.159, 316.991 489.959, 316.107 490.520 C 315.223 491.082, 312.523 492.882, 310.107 494.520 C 307.691 496.159, 304.991 497.959, 304.107 498.520 C 303.223 499.082, 300.523 500.882, 298.107 502.520 C 295.691 504.159, 292.991 505.959, 292.107 506.520 C 291.223 507.082, 288.523 508.882, 286.107 510.520 C 283.691 512.159, 280.991 513.959, 280.107 514.520 C 279.223 515.082, 276.523 516.882, 274.107 518.520 C 271.691 520.159, 268.991 521.959, 268.107 522.520 C 267.223 523.082, 264.523 524.882, 262.107 526.520 C 259.691 528.159, 256.987 529.950, 256.098 530.500 C 255.210 531.050, 244.432 538.250, 232.148 546.500 C 219.864 554.750, 209.068 561.959, 208.157 562.520 C 207.245 563.082, 204.523 564.882, 202.107 566.520 C 199.691 568.159, 196.991 569.959, 196.107 570.520 C 195.223 571.082, 192.523 572.882, 190.107 574.520 C 187.691 576.159, 184.991 577.959, 184.107 578.520 C 183.223 579.082, 180.516 580.882, 178.090 582.520 C 175.665 584.159, 172.676 586.175, 171.448 587 C 170.220 587.825, 167.119 589.962, 164.557 591.750 C 161.996 593.538, 159.542 595, 159.105 595 C 158.668 595, 157.495 595.900, 156.500 597 C 155.505 598.100, 154.185 599, 153.567 599 C 152.950 599, 151.674 599.900, 150.732 601 C 149.790 602.100, 148.410 603, 147.665 603 C 146.920 603, 145.495 603.900, 144.500 605 C 143.505 606.100, 142.071 607, 141.314 607 C 140.557 607, 139.685 607.658, 139.376 608.462 C 139.068 609.266, 137.844 610.228, 136.658 610.599 C 135.471 610.970, 133.303 612.225, 131.840 613.387 C 125.989 618.035, 124.546 619, 123.452 619 C 122.824 619, 121.495 619.900, 120.500 621 C 119.505 622.100, 118.155 623, 117.500 623 C 116.845 623, 115.495 623.900, 114.500 625 C 113.505 626.100, 112.280 627, 111.778 627 C 110.609 627, 103.750 632.095, 102.700 633.744 C 102.260 634.435, 101.271 635, 100.500 635 C 99.730 635, 97.013 636.462, 94.462 638.250 C 91.911 640.038, 89.067 641.950, 88.141 642.500 C 85.429 644.112, 79.611 648.327, 78.179 649.717 C 77.452 650.423, 76.459 651, 75.973 651 C 74.395 651, 67.923 655.829, 65.682 658.677 L 63.500 661.451 63.170 731.066 C 62.767 816.165, 59.361 803.452, 87.655 822.455 C 94.170 826.831, 99.860 830.993, 100.300 831.705 C 100.740 832.417, 101.698 833, 102.429 833 C 103.161 833, 106.367 835.025, 109.554 837.500 C 112.742 839.975, 115.769 842, 116.282 842 C 116.794 842, 119.474 843.800, 122.237 846 C 125.001 848.200, 127.701 850, 128.237 850 C 128.774 850, 131.365 851.688, 133.993 853.750 C 136.622 855.813, 140.737 858.735, 143.137 860.245 C 145.536 861.755, 150.200 864.795, 153.500 867 C 156.800 869.205, 161.453 872.245, 163.841 873.755 C 166.229 875.265, 170.670 878.413, 173.711 880.750 C 176.752 883.087, 179.858 885, 180.612 885 C 181.366 885, 182.545 885.900, 183.232 887 C 183.919 888.100, 184.978 889, 185.586 889 C 186.193 889, 187.505 889.900, 188.500 891 C 189.495 892.100, 190.947 893, 191.726 893 C 192.504 893, 195.276 894.800, 197.885 897 C 200.494 899.200, 203.180 901, 203.853 901 C 204.526 901, 206.951 902.800, 209.240 905 C 211.530 907.200, 214.136 909, 215.032 909 C 215.928 909, 218.649 910.794, 221.080 912.986 C 223.511 915.178, 226.249 916.978, 227.164 916.986 C 228.080 916.994, 230.780 918.788, 233.164 920.973 C 235.549 923.159, 238.008 924.959, 238.630 924.973 C 239.251 924.988, 242.248 926.912, 245.289 929.250 C 248.330 931.587, 252.771 934.735, 255.159 936.245 C 261.141 940.028, 269.917 945.866, 275.461 949.750 C 278.013 951.537, 280.316 953, 280.580 953 C 280.843 953, 283.336 954.800, 286.119 957 C 288.902 959.200, 291.557 961, 292.018 961 C 292.480 961, 293.452 961.568, 294.179 962.263 C 295.403 963.434, 297.927 965.249, 303.544 969 C 304.780 969.825, 310.606 973.762, 316.492 977.750 C 327.773 985.393, 330.557 986.252, 333.500 983 C 334.495 981.900, 335.668 981, 336.105 981 C 336.542 981, 338.987 979.537, 341.538 977.750 C 344.089 975.962, 346.924 974.041, 347.838 973.480 C 348.752 972.918, 351.484 971.118, 353.910 969.480 C 361.593 964.288, 363.432 963.099, 366.250 961.505 C 367.762 960.649, 369 959.519, 369 958.993 C 369 958.468, 370.238 957.740, 371.750 957.376 C 373.262 957.011, 375.175 956.105, 376 955.362 C 380.045 951.717, 383.916 949, 385.060 949 C 385.760 949, 387.045 948.334, 387.916 947.519 C 392.822 942.932, 395.458 941, 396.812 941 C 398.274 941, 399.375 940.168, 404.421 935.250 C 405.690 934.013, 407.540 933, 408.531 933 C 410.258 933, 411.299 932.241, 416.421 927.250 C 417.690 926.013, 419.540 925, 420.531 925 C 422.258 925, 423.299 924.241, 428.421 919.250 C 429.690 918.013, 431.540 917, 432.531 917 C 434.258 917, 435.299 916.241, 440.421 911.250 C 441.690 910.013, 443.611 909, 444.689 909 C 445.767 909, 448.415 907.208, 450.574 905.017 C 452.733 902.826, 455.422 901.026, 456.549 901.017 C 457.675 901.008, 460.470 899.200, 462.760 897 C 465.049 894.800, 467.749 893, 468.760 893 C 469.770 893, 472.470 891.200, 474.760 889 C 477.049 886.800, 479.728 884.994, 480.711 884.986 C 481.695 884.978, 484.489 883.178, 486.920 880.986 C 489.351 878.794, 492.051 876.994, 492.920 876.986 C 493.789 876.978, 496.489 875.178, 498.920 872.986 C 501.351 870.794, 503.988 869, 504.781 869 C 505.574 869, 508.372 867.200, 511 865 C 513.628 862.800, 516.328 861, 517 861 C 517.672 861, 520.372 859.200, 523 857 C 525.628 854.800, 528.291 853, 528.918 853 C 529.546 853, 532.336 851.200, 535.119 849 C 537.902 846.800, 540.602 845, 541.119 845 C 541.636 845, 544.336 843.200, 547.119 841 C 549.902 838.800, 552.602 837, 553.119 837 C 553.636 837, 556.336 835.200, 559.119 833 C 561.902 830.800, 564.602 829, 565.119 829 C 565.636 829, 568.336 827.200, 571.119 825 C 573.902 822.800, 576.637 821, 577.195 821 C 577.754 821, 579.473 819.988, 581.016 818.750 C 586.872 814.052, 588.442 813, 589.600 813 C 590.256 813, 592.189 811.409, 593.896 809.465 L 597 805.930 597 651.933 C 597 490.657, 597.009 491, 592.945 491 C 591.855 491, 587.435 487.815, 583.916 484.495 C 583.045 483.673, 581.944 483, 581.470 483 C 580.251 483, 572.661 477.759, 571.700 476.253 C 571.260 475.564, 570.288 475, 569.540 475 C 568.792 475, 565.902 473.200, 563.119 471 C 560.336 468.800, 557.636 467, 557.119 467 C 556.602 467, 553.902 465.200, 551.119 463 C 548.336 460.800, 545.650 459, 545.150 459 C 544.650 459, 541.752 457.087, 538.711 454.750 C 535.670 452.413, 531.046 449.150, 528.435 447.500 C 518.287 441.086, 514.259 438.363, 509.575 434.750 C 506.900 432.688, 504.128 431, 503.413 431 C 502.698 431, 501.511 430.139, 500.774 429.087 C 500.037 428.035, 497.199 425.990, 494.467 424.543 C 491.735 423.095, 487.853 420.356, 485.839 418.455 C 483.825 416.555, 481.329 415, 480.292 415 C 479.255 415, 476.648 413.200, 474.500 411 C 472.352 408.800, 469.960 407, 469.186 407 C 468.411 407, 465.628 405.200, 463 403 C 457.582 398.464, 453.273 397.732, 451.232 401 M 453.500 402.192 C 452.400 402.813, 446.325 406.779, 440 411.005 C 433.675 415.230, 424.225 421.518, 419 424.978 C 413.775 428.438, 408.150 432.216, 406.500 433.374 C 403.178 435.705, 378.790 452.155, 372.500 456.307 C 366.911 459.996, 360.369 464.428, 354.500 468.501 C 351.750 470.410, 348.153 472.721, 346.506 473.638 C 344.859 474.554, 341.218 477.035, 338.415 479.152 C 335.612 481.268, 333.002 483, 332.616 483 C 332.230 483, 329.530 484.800, 326.616 487 C 323.702 489.200, 321.002 491, 320.616 491 C 320.230 491, 317.530 492.800, 314.616 495 C 311.702 497.200, 308.974 499, 308.552 499 C 308.131 499, 305.635 500.688, 303.007 502.750 C 300.378 504.813, 296.263 507.735, 293.863 509.245 C 286.069 514.149, 266.779 527.177, 266 528.063 C 265.725 528.376, 263.025 530.090, 260 531.873 C 251.891 536.650, 247.846 539.264, 234.747 548.189 C 233.232 549.221, 230.307 551.169, 228.247 552.518 C 226.186 553.868, 224.050 555.324, 223.500 555.755 C 222.950 556.185, 220.250 557.995, 217.500 559.776 C 214.750 561.557, 211.638 563.573, 210.585 564.257 C 209.532 564.941, 207.951 566.175, 207.071 567 C 206.192 567.825, 204.224 569.061, 202.699 569.746 C 199.766 571.062, 199.184 571.474, 194.639 575.440 C 193.065 576.813, 190.893 578.216, 189.813 578.559 C 188.733 578.902, 188.066 579.400, 188.332 579.665 C 188.597 579.930, 190.318 579.346, 192.157 578.366 C 193.996 577.386, 195.725 576.562, 196 576.535 C 197.282 576.408, 200.920 573.253, 200.392 572.725 C 200.064 572.398, 203.103 570.525, 207.145 568.565 C 211.186 566.604, 214.045 564.982, 213.497 564.961 C 212.948 564.939, 213.850 564.326, 215.500 563.599 C 217.150 562.871, 220.287 560.629, 222.470 558.615 C 224.654 556.602, 226.961 555.155, 227.598 555.399 C 228.235 555.644, 229.149 555.470, 229.628 555.014 C 230.108 554.558, 232.734 552.949, 235.465 551.440 C 238.196 549.930, 243.146 546.566, 246.465 543.964 C 249.784 541.362, 255.462 537.665, 259.082 535.750 C 265.202 532.511, 270.113 529.582, 272.500 527.747 C 278.921 522.811, 280.422 521.802, 302.189 507.796 C 306.210 505.209, 312.100 501.255, 315.278 499.010 C 322.269 494.071, 326.490 491.462, 330.580 489.553 C 332.273 488.763, 334.241 487.415, 334.952 486.558 C 335.663 485.701, 336.795 485, 337.467 485 C 338.140 485, 339.505 484.100, 340.500 483 C 341.495 481.900, 342.774 481, 343.341 481 C 343.907 481, 345.300 480.179, 346.436 479.175 C 348.301 477.526, 356.005 472.524, 368.832 464.635 C 371.393 463.060, 375.967 459.888, 378.995 457.587 C 382.023 455.286, 386.525 452.309, 389 450.971 C 391.475 449.633, 395.696 446.842, 398.381 444.769 C 401.065 442.696, 403.700 441, 404.237 441 C 404.773 441, 406.917 439.650, 409 438 C 411.083 436.350, 413.806 435, 415.050 435 C 416.293 435, 418.786 433.875, 420.589 432.500 C 422.392 431.125, 424.122 430, 424.433 430 C 424.745 430, 425.935 429.065, 427.077 427.923 C 428.220 426.780, 429.772 426.082, 430.526 426.372 C 431.373 426.697, 431.704 426.393, 431.392 425.578 C 431.100 424.819, 432.695 422.927, 435.139 421.129 C 439.895 417.631, 442.517 416.873, 438.861 420.053 L 436.500 422.106 439 421.441 C 441.906 420.668, 446.225 416.173, 445.378 414.803 C 445.060 414.288, 445.407 413.968, 446.150 414.093 C 446.892 414.218, 448.832 413.774, 450.461 413.105 C 454.584 411.412, 459.972 413.503, 462.036 417.596 C 462.976 419.461, 464.139 420.465, 465.036 420.185 C 465.841 419.932, 466.182 420.069, 465.793 420.487 C 465.403 420.906, 465.875 421.980, 466.840 422.874 C 467.898 423.855, 467.980 424.103, 467.047 423.500 C 465.696 422.626, 465.675 422.723, 466.883 424.262 C 467.813 425.448, 468.645 425.710, 469.425 425.062 C 470.493 424.176, 478 430.793, 478 432.620 C 478 432.975, 478.812 433.993, 479.805 434.883 C 481.753 436.629, 482.745 444, 481.031 444 C 480.437 444, 480 446.545, 480 450 C 480 453.333, 479.556 456, 479 456 C 478.450 456, 478 453.750, 478 451 C 478 445.185, 475.380 443.929, 473.304 448.750 C 471.505 452.927, 469.738 467.413, 470.976 467.825 C 471.539 468.013, 472 469.029, 472 470.083 C 472 471.137, 472.479 472, 473.064 472 C 473.735 472, 474.078 469.143, 473.993 464.250 C 473.919 459.988, 473.891 455.938, 473.929 455.250 C 474.048 453.153, 476 453.860, 476 456 C 476 457.100, 476.395 458, 476.879 458 C 477.362 458, 478.317 459.350, 479 461 C 479.683 462.650, 480.638 464, 481.121 464 C 482.526 464, 482.175 473.762, 480.750 474.341 C 479.864 474.700, 479.819 475.088, 480.595 475.674 C 482.449 477.072, 483.133 484, 481.418 484 C 480.438 484, 480.099 484.763, 480.383 486.327 C 480.758 488.397, 480.438 488.641, 477.477 488.543 C 475.647 488.482, 474.367 488.785, 474.634 489.216 C 474.900 489.647, 474.416 490, 473.559 490 C 472.702 490, 472.113 490.563, 472.250 491.250 C 472.404 492.020, 471.640 492.380, 470.258 492.188 C 468.573 491.954, 468.164 492.265, 468.615 493.438 C 468.947 494.304, 468.694 495, 468.048 495 C 467.407 495, 467.159 495.449, 467.498 495.997 C 467.902 496.650, 467.192 496.643, 465.443 495.978 C 463.256 495.147, 462.872 495.225, 463.326 496.408 C 463.985 498.125, 461.538 500.450, 460.044 499.527 C 459.458 499.165, 459 499.718, 459 500.786 C 459 503.044, 455.696 506.330, 454.510 505.252 C 454.054 504.838, 453.964 505.288, 454.309 506.250 C 454.799 507.614, 454.392 508, 452.469 508 C 450.923 508, 450 508.570, 450 509.525 C 450 510.363, 448.875 511.477, 447.500 512 C 446.125 512.523, 444.999 513.299, 444.998 513.725 C 444.997 514.151, 442.860 515.822, 440.248 517.437 C 432.825 522.029, 423.100 529.694, 413.679 538.378 C 411.578 540.315, 407.435 543.508, 404.473 545.474 C 401.511 547.440, 398.813 549.493, 398.478 550.036 C 398.142 550.579, 395.210 552.789, 391.962 554.946 C 388.713 557.104, 385.481 559.357, 384.778 559.953 C 383.419 561.105, 378.562 564.438, 368 571.464 C 364.425 573.842, 360.325 576.848, 358.888 578.144 C 355.743 580.981, 353.555 582.467, 349.250 584.691 C 347.462 585.615, 346 586.693, 346 587.088 C 346 587.483, 343.413 589.507, 340.250 591.587 C 337.087 593.667, 334.275 595.623, 334 595.934 C 333.725 596.245, 331.925 597.352, 330 598.393 C 328.075 599.435, 324.250 601.971, 321.500 604.030 C 318.750 606.088, 307.500 613.818, 296.500 621.207 C 285.500 628.597, 272.048 637.760, 266.607 641.571 C 261.167 645.382, 254.867 649.786, 252.607 651.358 C 250.348 652.930, 247.361 655.438, 245.968 656.931 C 244.576 658.424, 242.844 659.448, 242.120 659.207 C 241.395 658.965, 239.737 659.338, 238.435 660.035 C 236.523 661.058, 235.773 661.057, 234.534 660.028 C 233.193 658.915, 233 659.336, 233 663.378 C 233 667.703, 233.113 667.900, 234.750 666.453 C 235.713 665.602, 238.975 663.276, 242 661.284 C 252.422 654.419, 290.509 629.059, 295 625.994 C 297.475 624.305, 315.275 612.477, 334.556 599.711 C 353.837 586.945, 376.707 571.775, 385.380 566 C 394.052 560.225, 401.864 555.050, 402.740 554.500 C 403.616 553.950, 416.561 545.400, 431.507 535.500 C 446.453 525.600, 459.383 517.050, 460.240 516.500 C 461.098 515.950, 469.382 510.410, 478.650 504.188 L 495.500 492.877 495.774 619.688 C 496.090 765.874, 497.163 753.749, 483.444 759.089 C 482.574 759.428, 400.714 813.863, 397.500 816.240 C 396.950 816.646, 384.050 825.258, 368.833 835.375 C 353.616 845.493, 339.624 854.948, 337.739 856.386 C 335.854 857.824, 333.604 859, 332.739 859 C 331.874 859, 330.904 859.563, 330.583 860.250 C 330.117 861.250, 329.883 861.250, 329.417 860.250 C 329.096 859.563, 328.369 859, 327.801 859 C 327.233 859, 324.683 857.474, 322.134 855.608 C 315.854 851.011, 285.396 830.387, 264 816.243 C 254.375 809.881, 246.275 804.366, 246 803.987 C 245.393 803.153, 241.397 801, 240.454 801 C 237.964 801, 255.784 815.202, 262 818.171 C 263.925 819.091, 268.650 822.107, 272.500 824.875 C 276.350 827.642, 282.042 831.261, 285.148 832.916 C 288.255 834.572, 291.760 837.151, 292.937 838.647 C 294.114 840.144, 296.747 842.489, 298.789 843.858 C 300.830 845.228, 302.725 846.622, 303 846.957 C 303.275 847.292, 305.975 849.101, 309 850.977 C 312.025 852.854, 316.075 855.565, 318 857.001 C 325.708 862.753, 333.943 863.755, 339 859.556 C 339.825 858.871, 342.975 856.865, 346 855.098 C 351.827 851.694, 361.492 845.743, 364 844.015 C 364.825 843.446, 368.650 841.001, 372.500 838.580 C 376.350 836.160, 381.545 832.604, 384.044 830.679 C 386.543 828.754, 391.493 825.718, 395.044 823.932 C 398.595 822.146, 403.160 819.207, 405.188 817.401 C 407.216 815.595, 411.491 812.891, 414.688 811.392 C 417.885 809.893, 420.725 808.404, 421 808.083 C 421.275 807.762, 422.601 807.377, 423.947 807.227 C 425.293 807.077, 427.223 806.064, 428.236 804.977 C 429.249 803.890, 430.735 802.933, 431.539 802.850 C 432.343 802.768, 433.563 802.655, 434.250 802.600 C 434.938 802.545, 436.047 802.050, 436.715 801.500 C 437.384 800.950, 438.602 799.938, 439.423 799.250 C 440.244 798.563, 441.610 798, 442.458 798 C 443.306 798, 444 797.475, 444 796.833 C 444 796.192, 444.301 795.968, 444.669 796.336 C 445.037 796.703, 446.111 796.304, 447.057 795.448 C 448.003 794.593, 449.695 793.823, 450.819 793.739 C 451.942 793.654, 452.641 793.228, 452.372 792.792 C 452.102 792.357, 452.484 792, 453.219 792 C 453.954 792, 455.352 791.070, 456.326 789.933 C 458.186 787.760, 460.717 787.833, 460.194 790.044 C 459.954 791.056, 460.200 791.079, 461.317 790.152 C 462.103 789.499, 463.479 789.246, 464.373 789.590 C 465.268 789.933, 466 789.826, 466 789.351 C 466 788.209, 471.939 785.606, 472.733 786.400 C 473.073 786.740, 474.422 786.012, 475.731 784.783 C 477.560 783.065, 477.958 782.947, 477.449 784.274 C 477.084 785.223, 476.497 786, 476.143 786 C 475.148 786, 476.087 803.456, 477.103 803.833 C 478.121 804.212, 478.307 809.036, 477.395 811.412 C 477.063 812.279, 476.427 812.764, 475.983 812.489 C 475.539 812.215, 475.847 814.805, 476.669 818.245 C 477.744 822.743, 477.959 826.607, 477.436 832 C 476.271 844.006, 476.164 850, 477.115 850 C 477.602 850, 478 849.100, 478 848 C 478 846.900, 478.450 846, 479 846 C 479.550 846, 480 848.250, 480 851 C 480 855.615, 480.185 856, 482.406 856 C 484.320 856, 484.706 856.409, 484.290 858 C 484 859.107, 482.926 860, 481.883 860 C 480.667 860, 480 860.708, 480 862 C 480 863.333, 479.333 864, 478 864 C 476.900 864, 476 864.477, 476 865.059 C 476 865.641, 476.359 865.896, 476.798 865.625 C 477.237 865.354, 478.249 865.595, 479.048 866.160 C 480.224 866.993, 480.162 867.080, 478.720 866.614 C 477.473 866.212, 476.599 866.786, 475.806 868.527 C 474.743 870.859, 474.528 870.921, 472.371 869.508 C 469.716 867.768, 466 867.506, 466 869.059 C 466 869.641, 466.403 869.869, 466.895 869.565 C 467.388 869.260, 468.048 869.684, 468.364 870.506 C 468.728 871.456, 468.342 872, 467.302 872 C 466.403 872, 465.960 872.293, 466.318 872.651 C 466.676 873.009, 466.188 873.910, 465.234 874.654 C 463.592 875.934, 463.592 875.973, 465.250 875.395 C 466.212 875.060, 467 875.236, 467 875.786 C 467 876.874, 464.043 878.443, 462.613 878.113 C 461.128 877.771, 457 882.229, 457 884.174 C 457 885.178, 456.311 886, 455.469 886 C 454.626 886, 453.679 886.672, 453.364 887.494 C 453.048 888.316, 452.388 888.740, 451.895 888.435 C 451.403 888.131, 451 888.431, 451 889.102 C 451 890.844, 445.096 895.982, 441.148 897.675 C 439.305 898.465, 436.857 899.987, 435.710 901.056 C 434.562 902.125, 433.033 903, 432.311 903 C 431.590 903, 431 903.444, 431 903.987 C 431 904.531, 429.313 906.118, 427.250 907.516 C 425.188 908.913, 421.025 911.867, 418 914.080 C 414.975 916.293, 411.425 918.867, 410.110 919.802 C 405.867 922.817, 396.555 930.653, 394.595 932.857 C 393.547 934.036, 392.197 935.001, 391.595 935.001 C 390.993 935.002, 389.150 936.166, 387.500 937.589 C 385.850 939.012, 381.913 941.775, 378.750 943.730 C 375.587 945.685, 373 947.670, 373 948.142 C 373 948.614, 372.373 949, 371.607 949 C 370.841 949, 369.953 949.679, 369.635 950.509 C 369.317 951.338, 367.806 952.559, 366.278 953.221 C 364.750 953.884, 360.184 956.692, 356.130 959.463 C 352.077 962.233, 346.677 965.777, 344.130 967.338 C 341.584 968.899, 338.150 971.430, 336.500 972.961 C 330.929 978.133, 323.902 976.786, 313.889 968.628 C 311.355 966.563, 304.444 962.060, 299.114 958.999 C 297.676 958.174, 296.425 957.105, 296.333 956.624 C 296.131 955.571, 291.731 952.537, 287.223 950.342 C 285.421 949.465, 282.429 947.229, 280.573 945.373 C 278.718 943.518, 276.543 942, 275.741 942 C 274.938 942, 272.306 940.429, 269.891 938.510 C 267.476 936.590, 264.712 935.015, 263.750 935.010 C 262.788 935.004, 262 934.550, 262 934 C 262 933.450, 261.409 933, 260.687 933 C 259.965 933, 258.081 931.650, 256.500 930 C 254.919 928.350, 252.920 927, 252.056 927 C 251.193 927, 248.240 924.989, 245.493 922.532 C 242.747 920.074, 239.331 917.803, 237.901 917.485 C 236.472 917.168, 233.796 915.353, 231.955 913.454 C 230.114 911.554, 228.007 910, 227.272 910 C 226.538 910, 225.678 909.325, 225.362 908.500 C 225.045 907.675, 224.341 907, 223.797 907 C 223.254 907, 221.533 906.092, 219.975 904.982 C 218.190 903.711, 216.904 903.347, 216.501 903.998 C 216.149 904.567, 215.443 904.774, 214.931 904.457 C 214.419 904.141, 214 904.058, 214 904.273 C 214 904.487, 216.363 906.177, 219.250 908.026 C 222.138 909.876, 224.725 911.640, 225 911.947 C 225.275 912.254, 227.525 913.853, 230 915.500 C 232.475 917.147, 234.725 918.750, 235 919.063 C 235.275 919.376, 238.200 921.387, 241.500 923.531 C 244.800 925.676, 247.725 927.688, 248 928.002 C 248.275 928.317, 250.750 930.008, 253.500 931.761 C 256.250 933.513, 258.951 935.297, 259.502 935.724 C 260.052 936.151, 266.577 940.550, 274 945.500 C 281.423 950.450, 287.948 954.845, 288.498 955.267 C 289.049 955.689, 290.974 957.039, 292.776 958.267 C 294.578 959.495, 301.553 964.294, 308.276 968.931 C 314.999 973.569, 322.025 978.406, 323.890 979.681 C 328.762 983.014, 328.384 983.167, 348.823 969.635 C 481.565 881.754, 589.065 810.189, 591.250 808.246 C 592.903 806.777, 593 798.018, 593 651.032 L 593 495.374 590.250 492.827 C 588.737 491.426, 577.825 483.845, 566 475.980 C 546.012 462.685, 527.929 450.462, 513.500 440.494 C 510.200 438.215, 501.650 432.376, 494.500 427.520 C 487.350 422.663, 475.803 414.710, 468.841 409.845 C 461.878 404.980, 456.028 401.014, 455.841 401.030 C 455.653 401.047, 454.600 401.570, 453.500 402.192 M 234.755 456.846 C 232.695 457.756, 231.008 458.900, 231.005 459.390 C 231.002 459.879, 230.213 460.877, 229.250 461.608 C 228.287 462.339, 228.028 462.951, 228.673 462.968 C 229.319 462.986, 231.119 461.952, 232.673 460.670 C 234.228 459.389, 236.287 458.053, 237.250 457.702 C 238.213 457.350, 239 456.599, 239 456.031 C 239 455.464, 238.887 455.043, 238.750 455.096 C 238.613 455.149, 236.815 455.936, 234.755 456.846 M 490.638 499.500 C 490.322 500.325, 489.324 501, 488.420 501 C 487.517 501, 484.628 502.800, 482 505 C 479.372 507.200, 476.691 509, 476.041 509 C 475.391 509, 472.724 510.800, 470.115 513 C 467.506 515.200, 464.788 517, 464.074 517 C 463.361 517, 460.628 518.800, 458 521 C 455.372 523.200, 452.709 525, 452.082 525 C 451.454 525, 448.664 526.800, 445.881 529 C 443.098 531.200, 440.379 533, 439.840 533 C 439.300 533, 436.724 534.800, 434.115 537 C 431.506 539.200, 428.788 541, 428.074 541 C 427.361 541, 424.628 542.800, 422 545 C 419.372 547.200, 416.691 549, 416.041 549 C 415.391 549, 412.724 550.800, 410.115 553 C 407.506 555.200, 404.788 557, 404.074 557 C 403.361 557, 400.628 558.800, 398 561 C 395.372 563.200, 392.709 565, 392.082 565 C 391.454 565, 388.664 566.800, 385.881 569 C 383.098 571.200, 380.398 573, 379.881 573 C 379.364 573, 376.664 574.800, 373.881 577 C 371.098 579.200, 368.374 581, 367.828 581 C 367.283 581, 364.946 582.549, 362.636 584.442 C 360.326 586.335, 357.325 588.362, 355.968 588.946 C 354.611 589.530, 351.475 591.551, 349 593.438 C 346.525 595.324, 343.993 596.897, 343.372 596.934 C 342.752 596.970, 341.687 597.672, 341.005 598.494 C 340.323 599.315, 337.456 601.359, 334.633 603.035 C 331.810 604.712, 327.453 607.527, 324.951 609.292 C 319.605 613.062, 317.998 614.119, 312.053 617.769 C 309.608 619.271, 306.639 621.400, 305.455 622.500 C 304.272 623.600, 301.167 625.625, 298.554 627 C 295.942 628.375, 293.286 630.215, 292.652 631.088 C 292.018 631.962, 290.371 632.956, 288.991 633.297 C 287.610 633.638, 284.793 635.463, 282.730 637.353 C 280.668 639.242, 277.968 641.042, 276.730 641.353 C 275.493 641.663, 272.793 643.463, 270.730 645.353 C 268.668 647.242, 265.968 649.042, 264.730 649.353 C 263.493 649.663, 260.842 651.419, 258.839 653.253 C 256.836 655.088, 254.140 657.154, 252.849 657.843 C 245.974 661.515, 244.827 662.288, 244.329 663.585 C 244.030 664.363, 242.930 665, 241.883 665 C 240.837 665, 239.210 665.900, 238.268 667 C 230.853 675.661, 229.943 671.109, 230.024 625.753 C 230.096 585.471, 230.066 585.234, 225.515 589.984 C 223.926 591.643, 221.611 593, 220.370 593 C 219.129 593, 217.523 593.788, 216.802 594.750 C 215.222 596.860, 209.465 601, 208.112 601 C 207.579 601, 206.403 601.740, 205.499 602.644 C 202.847 605.296, 197.027 609, 195.512 609 C 194.743 609, 193.523 609.788, 192.802 610.750 C 191.124 612.990, 185.431 617, 183.929 617 C 183.296 617, 180.690 618.724, 178.139 620.832 C 175.587 622.940, 172.669 624.967, 171.653 625.338 C 169.877 625.986, 169.823 628.385, 170.252 687.180 L 170.698 748.348 173.599 750.719 C 177.931 754.262, 184.986 759, 185.928 759 C 186.383 759, 187.306 759.664, 187.980 760.476 C 189.480 762.283, 207.768 774.827, 214.250 778.495 C 215.762 779.351, 217 780.459, 217 780.958 C 217 781.457, 217.946 782.166, 219.103 782.533 C 221.532 783.304, 227.103 786.960, 229.499 789.356 C 230.403 790.260, 231.611 791, 232.183 791 C 232.755 791, 235.372 792.800, 238 795 C 240.628 797.200, 243.030 799, 243.339 799 C 243.647 799, 245.987 800.462, 248.538 802.250 C 251.089 804.038, 253.924 805.959, 254.838 806.520 C 255.752 807.082, 258.477 808.882, 260.893 810.520 C 263.309 812.159, 266.009 813.959, 266.893 814.520 C 267.777 815.082, 270.469 816.882, 272.875 818.520 C 275.280 820.159, 279.345 822.850, 281.906 824.500 C 284.468 826.150, 288.751 829.188, 291.425 831.250 C 294.100 833.313, 296.686 835, 297.173 835 C 297.660 835, 300.336 836.800, 303.119 839 C 305.902 841.200, 308.792 843, 309.540 843 C 310.288 843, 311.260 843.573, 311.700 844.274 C 312.420 845.421, 315.380 847.680, 319.882 850.520 C 320.772 851.082, 323.404 852.769, 325.730 854.270 C 330.003 857.028, 332 857.648, 332 856.219 C 332 855.790, 333.238 854.898, 334.750 854.237 C 336.262 853.577, 338.666 852.240, 340.090 851.268 C 341.515 850.296, 344.665 848.214, 347.090 846.642 C 349.516 845.070, 352.400 843.153, 353.500 842.381 C 356.623 840.191, 363.332 835.648, 365.107 834.520 C 365.991 833.959, 368.691 832.159, 371.107 830.520 C 373.523 828.882, 376.248 827.082, 377.162 826.520 C 378.076 825.959, 380.911 824.038, 383.462 822.250 C 386.013 820.462, 388.473 819, 388.928 819 C 389.383 819, 390.313 818.328, 390.995 817.506 C 391.677 816.685, 394.544 814.641, 397.367 812.965 C 400.190 811.288, 404.547 808.473, 407.049 806.708 C 409.551 804.944, 412.296 803.050, 413.149 802.500 C 414.003 801.950, 416.681 800.159, 419.100 798.520 C 421.520 796.882, 424.248 795.082, 425.162 794.520 C 426.076 793.959, 428.911 792.038, 431.462 790.250 C 434.013 788.462, 436.473 787, 436.928 787 C 437.383 787, 438.313 786.328, 438.995 785.506 C 439.677 784.685, 442.769 782.578, 445.867 780.825 C 448.965 779.072, 451.860 777.044, 452.300 776.319 C 452.740 775.593, 453.504 775, 454 775 C 454.495 775, 456.987 773.538, 459.539 771.750 C 465.209 767.778, 474.010 761.929, 479.860 758.245 C 483.896 755.704, 489.777 751.473, 492.750 748.973 C 494.712 747.322, 494.570 498, 492.607 498 C 491.841 498, 490.955 498.675, 490.638 499.500 M 184.500 582.195 C 183.400 582.819, 182.275 583.640, 182 584.019 C 181.725 584.399, 180.150 585.432, 178.500 586.315 C 176.850 587.198, 175.985 587.938, 176.579 587.960 C 177.681 588.001, 187 582.140, 187 581.406 C 187 580.837, 186.762 580.912, 184.500 582.195 M 233.445 625 C 233.445 642.325, 233.582 649.413, 233.748 640.750 C 233.915 632.087, 233.915 617.913, 233.748 609.250 C 233.582 600.587, 233.445 607.675, 233.445 625 M 209 780.500 C 212.638 783.539, 215 784.787, 215 783.670 C 215 783.142, 206.244 777, 205.492 777 C 205.117 777, 206.696 778.575, 209 780.500 M 478.977 783.055 C 477.527 786.557, 476.917 797.248, 478.062 799.100 C 479.717 801.777, 482.861 784.360, 481.244 781.472 C 480.465 780.080, 480.105 780.331, 478.977 783.055 M 223.441 790.532 C 224.509 791.339, 225.859 791.986, 226.441 791.968 C 227.024 791.951, 226.626 791.276, 225.559 790.468 C 224.491 789.661, 223.141 789.014, 222.559 789.032 C 221.976 789.049, 222.374 789.724, 223.441 790.532 M 229.260 794.085 C 230.227 794.649, 232.119 796.210, 233.464 797.555 C 235.536 799.627, 239 800.909, 239 799.604 C 239 798.956, 229.403 792.997, 228.412 793.030 C 227.911 793.047, 228.292 793.522, 229.260 794.085 M 482.141 843.750 C 482.055 850.011, 482.389 854, 483 854 C 484.141 854, 484.160 847.090, 483.042 839 C 482.362 834.085, 482.267 834.591, 482.141 843.750 M 473.070 853.250 C 473.032 854.763, 473.450 856, 474 856 C 475.174 856, 475.174 855.231, 474 852.500 C 473.238 850.728, 473.133 850.813, 473.070 853.250 M 200.574 895.444 C 203.283 897.338, 205.978 899.302, 206.563 899.809 C 208.572 901.549, 212.172 903.161, 212.752 902.581 C 213.072 902.261, 212.870 902, 212.304 902 C 211.445 902, 207.020 898.927, 202.437 895.147 C 200.932 893.906, 197.270 892, 196.390 892 C 195.982 892, 197.865 893.550, 200.574 895.444" stroke="none" fill="#e5c172" fill-rule="evenodd"/></svg>